<?xml version="1.0" encoding="utf-8"?>
<!-- Generator: Adobe Illustrator 23.0.3, SVG Export Plug-In . SVG Version: 6.00 Build 0)  -->
<svg version="1.1" id="Layer_1" xmlns="http://www.w3.org/2000/svg" xmlns:xlink="http://www.w3.org/1999/xlink" x="0px" y="0px"
	 viewBox="0 0 185 185" style="enable-background:new 0 0 185 185;" xml:space="preserve">
<style type="text/css">
	.st0{fill:none;stroke:#E88540;stroke-width:1.9392;stroke-miterlimit:10;}
	.st1{fill:none;stroke:#D87C3B;stroke-width:1.9392;stroke-miterlimit:10;}
	.st2{fill:none;stroke:#E28846;stroke-width:1.9392;stroke-miterlimit:10;}
	.st3{fill:none;stroke:#EF974A;stroke-width:1.9392;stroke-miterlimit:10;}
	.st4{fill:none;stroke:#F4A135;stroke-width:1.9392;stroke-miterlimit:10;}
</style>
<polygon id="leftback" class="st0" points="92.52,113.63 28.93,142.58 28.93,66.25 92.52,37.3 "/>
<polygon id="rightback" class="st1" points="92.42,113.63 156.01,142.58 156.01,66.25 92.42,37.3 "/>
<polygon id="leftfront" class="st2" points="28.93,142.52 92.52,171.48 92.52,95.15 28.93,66.2 "/>
<polygon id="rightfront" class="st3" points="156.01,142.52 92.42,171.48 92.42,95.15 156.01,66.2 "/>
<polygon id="rightbackflap" class="st4" points="155.91,66.2 92.48,37.43 118.49,15.15 181.91,43.91 "/>
<polygon id="leftfrontflap" class="st4" points="66.51,117.25 3.09,88.49 29.09,66.2 92.52,94.96 "/>
<polygon id="rightfrontflap" class="st4" points="118.49,117.25 181.91,88.49 155.91,66.2 92.48,94.96 "/>
<polygon id="leftfrontflap_1_" class="st4" points="29.09,66.2 92.52,37.43 66.51,15.15 3.09,43.91 "/>
</svg>
