<?xml version="1.0" encoding="utf-8"?>
<!-- Generator: Adobe Illustrator 23.0.3, SVG Export Plug-In . SVG Version: 6.00 Build 0)  -->
<svg version="1.1" xmlns="http://www.w3.org/2000/svg" xmlns:xlink="http://www.w3.org/1999/xlink" x="0px" y="0px"
	 viewBox="0 0 1701.26 1080" style="enable-background:new 0 0 1701.26 1080;" xml:space="preserve">
<style type="text/css">
	.st0{stroke:#FFFFFF;stroke-miterlimit:10;}
</style>
<g id="Layer_1">
	<g>
		<defs>
			<path id="baby" d="M540.06,187.04c0,0-48.26-3.06-56.68,13.02l-10.47,10.55c0,0-19.06-1.53-21.45,6.64
				c-2.38,8.17-11.23,35.74,21.11,18.72c0,0,7.15,41.87,31.66,55.49c0,0,9.19,14.98,2.38,18.04c-6.81,3.06-69.45,19.4-69.45,19.4
				s-38.81,32,8.68,144.6c0,0-9.96,52.85,10.72,74.3l13.79,42.13c0,0-12.77,77.36,92.43,88.6c0,0,23.49,7.15,38.81,0
				s0-154.21,0-154.21l1.02-104.17l96-12.26l-73.53-76.6L571.98,317l-0.26-5.11c0,0,12.77-4.09,14.3-6.89
				c1.53-2.81,5.11-44.43,5.11-44.43l-4.85-9.19l1.28-17.11C587.55,234.28,579.47,189.17,540.06,187.04z"/>
		</defs>
		<clipPath id="baby_1_">
			<use xlink:href="#baby"  style="overflow:visible;"/>
		</clipPath>
		<g style="clip-path:url(#baby_1_);">
			
				<image style="overflow:visible;" width="1700" height="1080" xlink:href="Taartrein-aarsman.png"  transform="matrix(1 0 0 1 0.1277 0)">
			</image>
		</g>
	</g>
</g>
<g id="Layer_2">
	<path d="M3082.79,330.28H3357l-33.7-28.4l16.85-32.87l16.85-16.85l-22.98-26.04c0,0-6.89-1.02,2.81-12l0.51-17.87l-2.04-6.38
		l-1.02-14.55c0,0,4.34-9.7,1.02-15.32s-25.28-51.32-68.43-28.85c0,0-53.36-13.02-80.17,33.96s-3.32,103.4-3.32,103.4l-1.79,12.26
		L3082.79,330.28z"/>
	<path id="taart" d="M2768.23,621.34l-82.72,32.68c0,0-36.77-24.51-69.45-16.34c-32.68,8.17-71.49,72.51-71.49,72.51l-65.36,34.72
		l87.83,121.53L2704.4,1080l286.47-210.49l7.66-79.66l24.51-33.7l-88.85-49.02l3.06-25.42l-160.85-81.82L2768.23,621.34z"/>
	<path id="zusje" d="M3422.51,1080v-46.57l-55.55,16.85c0,0-7.66,7.66-55.15-21.45h-36.77l-19.15,25.59c0,0-33.7,9.35-36,25.59
		H3422.51z"/>
	<path id="zonnebril" class="st0" d="M2560.66,165.34c0,0,36.51-21.7,66.13-5.11c29.62,16.6,43.66,22.21,57.96,71.74
		c0,0,7.4,41.11,2.81,52.85l3.57,10.21l-3.06,5.11l22.47,21.45c0,0-18.38,33.7-36.26,32.17L2661,382.87c0,0,50.04,14.3,52.6,31.66
		l4.6,36.26h-280.85l34.21-43.4l-21.96-40.85l8.94-118.21c0,0,30.64-89.1,55.91-94.34S2560.66,165.34,2560.66,165.34z"/>
</g>
</svg>
